<mxfile host="app.diagrams.net" modified="2023-10-23T19:14:50.784Z" agent="Mozilla/5.0 (Windows NT 10.0; Win64; x64) AppleWebKit/537.36 (KHTML, like Gecko) Chrome/118.0.0.0 Safari/537.36" etag="C9L6tmS1CGdA45xj0aT7" version="22.0.6" type="device">
  <diagram name="Page-1" id="mcRJoiFZVbyGvoiC1dqz">
    <mxGraphModel dx="1909" dy="2167" grid="1" gridSize="10" guides="1" tooltips="1" connect="1" arrows="1" fold="1" page="1" pageScale="1" pageWidth="850" pageHeight="1100" math="0" shadow="0">
      <root>
        <mxCell id="0" />
        <mxCell id="1" parent="0" />
        <mxCell id="tm53eODnrKpvhOiwJkyI-2" value="«Component»&lt;br&gt;&amp;lt;&amp;lt;Container (C4)&amp;gt;&amp;gt;&lt;br&gt;MDRoboISEP" style="html=1;dropTarget=0;whiteSpace=wrap;verticalAlign=top;fillColor=#72C9F7;strokeColor=#000000;strokeWidth=2;" parent="1" vertex="1">
          <mxGeometry x="144.62" y="30" width="1275.38" height="780" as="geometry" />
        </mxCell>
        <mxCell id="tm53eODnrKpvhOiwJkyI-3" value="" style="shape=module;jettyWidth=8;jettyHeight=4;fillColor=#72c9f7;" parent="tm53eODnrKpvhOiwJkyI-2" vertex="1">
          <mxGeometry x="1" width="20" height="20" relative="1" as="geometry">
            <mxPoint x="-27" y="7" as="offset" />
          </mxGeometry>
        </mxCell>
        <mxCell id="tm53eODnrKpvhOiwJkyI-4" value="" style="html=1;rounded=0;fillColor=#72C9F7;" parent="1" vertex="1">
          <mxGeometry x="256.75" y="20" width="18.5" height="20" as="geometry" />
        </mxCell>
        <mxCell id="tm53eODnrKpvhOiwJkyI-5" value="" style="endArrow=none;html=1;rounded=0;align=center;verticalAlign=top;endFill=0;labelBackgroundColor=none;endSize=2;" parent="1" source="tm53eODnrKpvhOiwJkyI-4" target="tm53eODnrKpvhOiwJkyI-6" edge="1">
          <mxGeometry relative="1" as="geometry" />
        </mxCell>
        <mxCell id="tm53eODnrKpvhOiwJkyI-6" value="" style="ellipse;html=1;fontSize=11;align=center;fillColor=#72C9F7;points=[];aspect=fixed;resizable=1;verticalAlign=bottom;labelPosition=center;verticalLabelPosition=top;flipH=1;rotation=0;" parent="1" vertex="1">
          <mxGeometry x="257" y="-40" width="18" height="18" as="geometry" />
        </mxCell>
        <mxCell id="tm53eODnrKpvhOiwJkyI-7" value="MDRoboISEP API" style="text;html=1;align=center;verticalAlign=middle;resizable=0;points=[];autosize=1;strokeColor=none;fillColor=none;" parent="1" vertex="1">
          <mxGeometry x="275" y="-22" width="120" height="30" as="geometry" />
        </mxCell>
        <mxCell id="tm53eODnrKpvhOiwJkyI-12" value="Frameworks and Drivers Layer" style="shape=folder;fontStyle=1;spacingTop=10;tabWidth=40;tabHeight=14;tabPosition=left;html=1;whiteSpace=wrap;verticalAlign=top;fillColor=#80ffff;" parent="1" vertex="1">
          <mxGeometry x="178.75" y="70" width="1211.25" height="110" as="geometry" />
        </mxCell>
        <mxCell id="tm53eODnrKpvhOiwJkyI-13" value="«component»&lt;br&gt;RoutePassagem" style="html=1;dropTarget=0;whiteSpace=wrap;fillColor=#7ACFF5;" parent="1" vertex="1">
          <mxGeometry x="197" y="110" width="140" height="50" as="geometry" />
        </mxCell>
        <mxCell id="tm53eODnrKpvhOiwJkyI-14" value="" style="shape=module;jettyWidth=8;jettyHeight=4;fillColor=#7ACFF5;" parent="tm53eODnrKpvhOiwJkyI-13" vertex="1">
          <mxGeometry x="1" width="20" height="20" relative="1" as="geometry">
            <mxPoint x="-27" y="7" as="offset" />
          </mxGeometry>
        </mxCell>
        <mxCell id="tm53eODnrKpvhOiwJkyI-17" value="«component»&lt;br&gt;&lt;b&gt;Persistence&lt;/b&gt;" style="html=1;dropTarget=0;whiteSpace=wrap;fillColor=#7ACFF5;" parent="1" vertex="1">
          <mxGeometry x="792" y="110" width="140" height="50" as="geometry" />
        </mxCell>
        <mxCell id="tm53eODnrKpvhOiwJkyI-18" value="" style="shape=module;jettyWidth=8;jettyHeight=4;fillColor=#7ACFF5;" parent="tm53eODnrKpvhOiwJkyI-17" vertex="1">
          <mxGeometry x="1" width="20" height="20" relative="1" as="geometry">
            <mxPoint x="-27" y="7" as="offset" />
          </mxGeometry>
        </mxCell>
        <mxCell id="tm53eODnrKpvhOiwJkyI-19" value="Interface Adapters Layer" style="shape=folder;fontStyle=1;spacingTop=10;tabWidth=40;tabHeight=14;tabPosition=left;html=1;whiteSpace=wrap;verticalAlign=top;fillColor=#c0ffc0;" parent="1" vertex="1">
          <mxGeometry x="179" y="260" width="1211" height="110" as="geometry" />
        </mxCell>
        <mxCell id="tm53eODnrKpvhOiwJkyI-20" value="«component»&lt;br&gt;&lt;b&gt;CriarPassagemController&lt;/b&gt;" style="html=1;dropTarget=0;whiteSpace=wrap;fillColor=#7ACFF5;" parent="1" vertex="1">
          <mxGeometry x="197.25" y="300" width="152.75" height="50" as="geometry" />
        </mxCell>
        <mxCell id="tm53eODnrKpvhOiwJkyI-21" value="" style="shape=module;jettyWidth=8;jettyHeight=4;fillColor=#7ACFF5;" parent="tm53eODnrKpvhOiwJkyI-20" vertex="1">
          <mxGeometry x="1" width="20" height="20" relative="1" as="geometry">
            <mxPoint x="-27" y="7" as="offset" />
          </mxGeometry>
        </mxCell>
        <mxCell id="tm53eODnrKpvhOiwJkyI-23" value="" style="shape=providedRequiredInterface;html=1;verticalLabelPosition=bottom;sketch=0;rotation=-90;fillColor=#72c9f7;" parent="1" vertex="1">
          <mxGeometry x="252.25" y="200" width="30" height="30" as="geometry" />
        </mxCell>
        <mxCell id="tm53eODnrKpvhOiwJkyI-24" value="" style="endArrow=none;html=1;rounded=0;exitX=1;exitY=0.5;exitDx=0;exitDy=0;exitPerimeter=0;entryX=0.5;entryY=1;entryDx=0;entryDy=0;" parent="1" source="tm53eODnrKpvhOiwJkyI-23" target="tm53eODnrKpvhOiwJkyI-13" edge="1">
          <mxGeometry width="50" height="50" relative="1" as="geometry">
            <mxPoint x="520" y="210" as="sourcePoint" />
            <mxPoint x="570" y="160" as="targetPoint" />
          </mxGeometry>
        </mxCell>
        <mxCell id="tm53eODnrKpvhOiwJkyI-25" value="" style="endArrow=none;html=1;rounded=0;entryX=0;entryY=0.5;entryDx=0;entryDy=0;entryPerimeter=0;" parent="1" target="tm53eODnrKpvhOiwJkyI-23" edge="1">
          <mxGeometry width="50" height="50" relative="1" as="geometry">
            <mxPoint x="267" y="300" as="sourcePoint" />
            <mxPoint x="277" y="170" as="targetPoint" />
          </mxGeometry>
        </mxCell>
        <mxCell id="tm53eODnrKpvhOiwJkyI-27" value="«component»&lt;br&gt;&lt;b&gt;PisoRepo&lt;/b&gt;" style="html=1;dropTarget=0;whiteSpace=wrap;fillColor=#7ACFF5;" parent="1" vertex="1">
          <mxGeometry x="808" y="300" width="140" height="50" as="geometry" />
        </mxCell>
        <mxCell id="tm53eODnrKpvhOiwJkyI-28" value="" style="shape=module;jettyWidth=8;jettyHeight=4;fillColor=#7ACFF5;" parent="tm53eODnrKpvhOiwJkyI-27" vertex="1">
          <mxGeometry x="1" width="20" height="20" relative="1" as="geometry">
            <mxPoint x="-27" y="7" as="offset" />
          </mxGeometry>
        </mxCell>
        <mxCell id="tm53eODnrKpvhOiwJkyI-29" value="Application Business Rules" style="shape=folder;fontStyle=1;spacingTop=10;tabWidth=40;tabHeight=14;tabPosition=left;html=1;whiteSpace=wrap;verticalAlign=top;fillColor=#ffafaf;" parent="1" vertex="1">
          <mxGeometry x="179" y="450" width="1211" height="110" as="geometry" />
        </mxCell>
        <mxCell id="tm53eODnrKpvhOiwJkyI-30" value="" style="shape=providedRequiredInterface;html=1;verticalLabelPosition=bottom;sketch=0;rotation=-90;fillColor=#72c9f7;" parent="1" vertex="1">
          <mxGeometry x="222.25" y="390" width="30" height="30" as="geometry" />
        </mxCell>
        <mxCell id="tm53eODnrKpvhOiwJkyI-31" value="" style="endArrow=none;html=1;rounded=0;exitX=1;exitY=0.5;exitDx=0;exitDy=0;exitPerimeter=0;entryX=0.5;entryY=1;entryDx=0;entryDy=0;" parent="1" source="tm53eODnrKpvhOiwJkyI-30" edge="1">
          <mxGeometry width="50" height="50" relative="1" as="geometry">
            <mxPoint x="490" y="400" as="sourcePoint" />
            <mxPoint x="237" y="350" as="targetPoint" />
          </mxGeometry>
        </mxCell>
        <mxCell id="tm53eODnrKpvhOiwJkyI-32" value="" style="endArrow=none;html=1;rounded=0;entryX=0;entryY=0.5;entryDx=0;entryDy=0;entryPerimeter=0;exitX=0.282;exitY=0.008;exitDx=0;exitDy=0;exitPerimeter=0;" parent="1" source="tm53eODnrKpvhOiwJkyI-39" target="tm53eODnrKpvhOiwJkyI-30" edge="1">
          <mxGeometry width="50" height="50" relative="1" as="geometry">
            <mxPoint x="237" y="450" as="sourcePoint" />
            <mxPoint x="247" y="360" as="targetPoint" />
          </mxGeometry>
        </mxCell>
        <mxCell id="tm53eODnrKpvhOiwJkyI-33" value="" style="shape=providedRequiredInterface;html=1;verticalLabelPosition=bottom;sketch=0;rotation=-90;fillColor=#72c9f7;" parent="1" vertex="1">
          <mxGeometry x="282.25" y="393" width="30" height="30" as="geometry" />
        </mxCell>
        <mxCell id="tm53eODnrKpvhOiwJkyI-34" value="" style="endArrow=none;html=1;rounded=0;exitX=1;exitY=0.5;exitDx=0;exitDy=0;exitPerimeter=0;entryX=0.5;entryY=1;entryDx=0;entryDy=0;" parent="1" source="tm53eODnrKpvhOiwJkyI-33" edge="1">
          <mxGeometry width="50" height="50" relative="1" as="geometry">
            <mxPoint x="550" y="400" as="sourcePoint" />
            <mxPoint x="297" y="350" as="targetPoint" />
          </mxGeometry>
        </mxCell>
        <mxCell id="tm53eODnrKpvhOiwJkyI-36" value="«component»&lt;br&gt;PassagemDTO" style="html=1;dropTarget=0;whiteSpace=wrap;fillColor=#7ACFF5;" parent="1" vertex="1">
          <mxGeometry x="500" y="382" width="140" height="50" as="geometry" />
        </mxCell>
        <mxCell id="tm53eODnrKpvhOiwJkyI-37" value="" style="shape=module;jettyWidth=8;jettyHeight=4;fillColor=#7ACFF5;" parent="tm53eODnrKpvhOiwJkyI-36" vertex="1">
          <mxGeometry x="1" width="20" height="20" relative="1" as="geometry">
            <mxPoint x="-27" y="7" as="offset" />
          </mxGeometry>
        </mxCell>
        <mxCell id="tm53eODnrKpvhOiwJkyI-38" value="" style="endArrow=none;html=1;rounded=0;exitX=-0.004;exitY=0.593;exitDx=0;exitDy=0;exitPerimeter=0;entryX=0.43;entryY=0.113;entryDx=0;entryDy=0;entryPerimeter=0;" parent="1" source="tm53eODnrKpvhOiwJkyI-36" target="tm53eODnrKpvhOiwJkyI-60" edge="1">
          <mxGeometry width="50" height="50" relative="1" as="geometry">
            <mxPoint x="247" y="460" as="sourcePoint" />
            <mxPoint x="247" y="420" as="targetPoint" />
          </mxGeometry>
        </mxCell>
        <mxCell id="tm53eODnrKpvhOiwJkyI-39" value="«component»&lt;br&gt;&lt;b&gt;CriarPassagemService&lt;/b&gt;" style="html=1;dropTarget=0;whiteSpace=wrap;fillColor=#7ACFF5;" parent="1" vertex="1">
          <mxGeometry x="197.25" y="480" width="140" height="50" as="geometry" />
        </mxCell>
        <mxCell id="tm53eODnrKpvhOiwJkyI-40" value="" style="shape=module;jettyWidth=8;jettyHeight=4;fillColor=#7ACFF5;" parent="tm53eODnrKpvhOiwJkyI-39" vertex="1">
          <mxGeometry x="1" width="20" height="20" relative="1" as="geometry">
            <mxPoint x="-27" y="7" as="offset" />
          </mxGeometry>
        </mxCell>
        <mxCell id="tm53eODnrKpvhOiwJkyI-41" value="" style="endArrow=none;html=1;rounded=0;exitX=0.713;exitY=0.012;exitDx=0;exitDy=0;entryX=1;entryY=0.5;entryDx=0;entryDy=0;entryPerimeter=0;exitPerimeter=0;" parent="1" source="tm53eODnrKpvhOiwJkyI-39" target="tm53eODnrKpvhOiwJkyI-60" edge="1">
          <mxGeometry width="50" height="50" relative="1" as="geometry">
            <mxPoint x="429" y="423" as="sourcePoint" />
            <mxPoint x="319" y="423" as="targetPoint" />
          </mxGeometry>
        </mxCell>
        <mxCell id="tm53eODnrKpvhOiwJkyI-42" value="Enterprise Business Rules" style="shape=folder;fontStyle=1;spacingTop=10;tabWidth=40;tabHeight=14;tabPosition=left;html=1;whiteSpace=wrap;verticalAlign=top;fillColor=#ffe0c0;" parent="1" vertex="1">
          <mxGeometry x="179" y="640" width="1211" height="110" as="geometry" />
        </mxCell>
        <mxCell id="tm53eODnrKpvhOiwJkyI-49" value="" style="shape=providedRequiredInterface;html=1;verticalLabelPosition=bottom;sketch=0;rotation=-180;fillColor=#72c9f7;" parent="1" vertex="1">
          <mxGeometry x="456" y="586" width="30" height="30" as="geometry" />
        </mxCell>
        <mxCell id="tm53eODnrKpvhOiwJkyI-50" value="" style="endArrow=none;html=1;rounded=0;exitX=1;exitY=0.5;exitDx=0;exitDy=0;exitPerimeter=0;entryX=0.5;entryY=1;entryDx=0;entryDy=0;" parent="1" source="tm53eODnrKpvhOiwJkyI-49" target="tm53eODnrKpvhOiwJkyI-39" edge="1">
          <mxGeometry width="50" height="50" relative="1" as="geometry">
            <mxPoint x="557.75" y="590" as="sourcePoint" />
            <mxPoint x="304.75" y="540" as="targetPoint" />
            <Array as="points">
              <mxPoint x="267" y="600" />
            </Array>
          </mxGeometry>
        </mxCell>
        <mxCell id="tm53eODnrKpvhOiwJkyI-51" value="" style="endArrow=none;html=1;rounded=0;entryX=0.402;entryY=0.899;entryDx=0;entryDy=0;entryPerimeter=0;exitX=0.5;exitY=0;exitDx=0;exitDy=0;" parent="1" source="tm53eODnrKpvhOiwJkyI-57" target="tm53eODnrKpvhOiwJkyI-67" edge="1">
          <mxGeometry width="50" height="50" relative="1" as="geometry">
            <mxPoint x="304.75" y="690" as="sourcePoint" />
            <mxPoint x="314.75" y="580" as="targetPoint" />
          </mxGeometry>
        </mxCell>
        <mxCell id="tm53eODnrKpvhOiwJkyI-57" value="Piso«component»&lt;br&gt;Piso&lt;b&gt;&amp;nbsp;(DDD)&lt;/b&gt;" style="html=1;dropTarget=0;whiteSpace=wrap;fillColor=#7ACFF5;" parent="1" vertex="1">
          <mxGeometry x="390" y="680" width="168" height="50" as="geometry" />
        </mxCell>
        <mxCell id="tm53eODnrKpvhOiwJkyI-58" value="" style="shape=module;jettyWidth=8;jettyHeight=4;fillColor=#7ACFF5;" parent="tm53eODnrKpvhOiwJkyI-57" vertex="1">
          <mxGeometry x="1" width="20" height="20" relative="1" as="geometry">
            <mxPoint x="-27" y="7" as="offset" />
          </mxGeometry>
        </mxCell>
        <mxCell id="tm53eODnrKpvhOiwJkyI-60" value="" style="shape=providedRequiredInterface;html=1;verticalLabelPosition=bottom;sketch=0;rotation=90;fillColor=#72c9f7;" parent="1" vertex="1">
          <mxGeometry x="282.25" y="399" width="30" height="30" as="geometry" />
        </mxCell>
        <mxCell id="tm53eODnrKpvhOiwJkyI-61" value="App Service API" style="text;html=1;align=center;verticalAlign=middle;resizable=0;points=[];autosize=1;strokeColor=none;fillColor=none;fontStyle=1" parent="1" vertex="1">
          <mxGeometry x="153.25" y="420" width="120" height="30" as="geometry" />
        </mxCell>
        <mxCell id="tm53eODnrKpvhOiwJkyI-63" value="DTO API" style="text;html=1;align=center;verticalAlign=middle;resizable=0;points=[];autosize=1;strokeColor=none;fillColor=none;fontStyle=1" parent="1" vertex="1">
          <mxGeometry x="300" y="420" width="70" height="30" as="geometry" />
        </mxCell>
        <mxCell id="tm53eODnrKpvhOiwJkyI-64" value="Model API" style="text;html=1;align=center;verticalAlign=middle;resizable=0;points=[];autosize=1;strokeColor=none;fillColor=none;fontStyle=1" parent="1" vertex="1">
          <mxGeometry x="478" y="616" width="80" height="30" as="geometry" />
        </mxCell>
        <mxCell id="tm53eODnrKpvhOiwJkyI-66" value="Controller API" style="text;html=1;align=center;verticalAlign=middle;resizable=0;points=[];autosize=1;strokeColor=none;fillColor=none;fontStyle=1" parent="1" vertex="1">
          <mxGeometry x="163.25" y="220" width="100" height="30" as="geometry" />
        </mxCell>
        <mxCell id="tm53eODnrKpvhOiwJkyI-67" value="" style="shape=providedRequiredInterface;html=1;verticalLabelPosition=bottom;sketch=0;rotation=0;fillColor=#72c9f7;" parent="1" vertex="1">
          <mxGeometry x="462" y="586" width="30" height="30" as="geometry" />
        </mxCell>
        <mxCell id="tm53eODnrKpvhOiwJkyI-70" value="" style="endArrow=none;html=1;rounded=0;exitX=1;exitY=0.5;exitDx=0;exitDy=0;exitPerimeter=0;entryX=0.75;entryY=1;entryDx=0;entryDy=0;" parent="1" source="tm53eODnrKpvhOiwJkyI-67" target="tm53eODnrKpvhOiwJkyI-27" edge="1">
          <mxGeometry width="50" height="50" relative="1" as="geometry">
            <mxPoint x="498" y="574" as="sourcePoint" />
            <mxPoint x="347" y="540" as="targetPoint" />
            <Array as="points">
              <mxPoint x="913" y="600" />
            </Array>
          </mxGeometry>
        </mxCell>
        <mxCell id="tm53eODnrKpvhOiwJkyI-73" value="" style="endArrow=none;html=1;rounded=0;entryX=1;entryY=0.75;entryDx=0;entryDy=0;exitX=1;exitY=0.5;exitDx=0;exitDy=0;exitPerimeter=0;" parent="1" source="tm53eODnrKpvhOiwJkyI-75" target="tm53eODnrKpvhOiwJkyI-39" edge="1">
          <mxGeometry width="50" height="50" relative="1" as="geometry">
            <mxPoint x="853" y="440" as="sourcePoint" />
            <mxPoint x="277" y="540" as="targetPoint" />
            <Array as="points">
              <mxPoint x="985" y="520" />
              <mxPoint x="930" y="520" />
            </Array>
          </mxGeometry>
        </mxCell>
        <mxCell id="tm53eODnrKpvhOiwJkyI-75" value="" style="shape=providedRequiredInterface;html=1;verticalLabelPosition=bottom;sketch=0;rotation=90;fillColor=#72c9f7;" parent="1" vertex="1">
          <mxGeometry x="970" y="390" width="30" height="30" as="geometry" />
        </mxCell>
        <mxCell id="tm53eODnrKpvhOiwJkyI-76" value="" style="endArrow=none;html=1;rounded=0;exitX=0;exitY=0.5;exitDx=0;exitDy=0;exitPerimeter=0;entryX=0.434;entryY=0.992;entryDx=0;entryDy=0;entryPerimeter=0;" parent="1" source="tm53eODnrKpvhOiwJkyI-75" target="tm53eODnrKpvhOiwJkyI-27" edge="1">
          <mxGeometry width="50" height="50" relative="1" as="geometry">
            <mxPoint x="307" y="403" as="sourcePoint" />
            <mxPoint x="855" y="350" as="targetPoint" />
            <Array as="points">
              <mxPoint x="869" y="390" />
            </Array>
          </mxGeometry>
        </mxCell>
        <mxCell id="tm53eODnrKpvhOiwJkyI-80" value="" style="shape=providedRequiredInterface;html=1;verticalLabelPosition=bottom;sketch=0;rotation=90;fillColor=#72c9f7;" parent="1" vertex="1">
          <mxGeometry x="843.5" y="213" width="30" height="30" as="geometry" />
        </mxCell>
        <mxCell id="tm53eODnrKpvhOiwJkyI-81" value="" style="endArrow=none;html=1;rounded=0;exitX=0;exitY=0.5;exitDx=0;exitDy=0;exitPerimeter=0;entryX=0.75;entryY=1;entryDx=0;entryDy=0;" parent="1" edge="1">
          <mxGeometry width="50" height="50" relative="1" as="geometry">
            <mxPoint x="858.25" y="213" as="sourcePoint" />
            <mxPoint x="858.25" y="159.99999999999977" as="targetPoint" />
            <Array as="points" />
          </mxGeometry>
        </mxCell>
        <mxCell id="tm53eODnrKpvhOiwJkyI-82" value="" style="endArrow=none;html=1;rounded=0;exitX=1;exitY=0.5;exitDx=0;exitDy=0;exitPerimeter=0;entryX=0.354;entryY=-0.005;entryDx=0;entryDy=0;entryPerimeter=0;" parent="1" target="tm53eODnrKpvhOiwJkyI-27" edge="1">
          <mxGeometry width="50" height="50" relative="1" as="geometry">
            <mxPoint x="858.25" y="243" as="sourcePoint" />
            <mxPoint x="858.25" y="289.9999999999998" as="targetPoint" />
            <Array as="points" />
          </mxGeometry>
        </mxCell>
        <mxCell id="tm53eODnrKpvhOiwJkyI-91" value="Persistence API" style="text;html=1;align=center;verticalAlign=middle;resizable=0;points=[];autosize=1;strokeColor=none;fillColor=none;fontStyle=1;glass=1;" parent="1" vertex="1">
          <mxGeometry x="900" y="237" width="110" height="30" as="geometry" />
        </mxCell>
        <mxCell id="tm53eODnrKpvhOiwJkyI-95" value="" style="html=1;rounded=0;fillColor=#72C9F7;" parent="1" vertex="1">
          <mxGeometry x="852" y="20" width="18.5" height="20" as="geometry" />
        </mxCell>
        <mxCell id="tm53eODnrKpvhOiwJkyI-96" value="" style="endArrow=none;html=1;rounded=0;align=center;verticalAlign=top;endFill=0;labelBackgroundColor=none;endSize=2;entryX=1;entryY=0.5;entryDx=0;entryDy=0;entryPerimeter=0;" parent="1" source="tm53eODnrKpvhOiwJkyI-95" target="tm53eODnrKpvhOiwJkyI-98" edge="1">
          <mxGeometry relative="1" as="geometry">
            <mxPoint x="859.25" y="-22" as="targetPoint" />
          </mxGeometry>
        </mxCell>
        <mxCell id="tm53eODnrKpvhOiwJkyI-98" value="" style="shape=requiredInterface;html=1;verticalLabelPosition=bottom;sketch=0;rotation=90;" parent="1" vertex="1">
          <mxGeometry x="856.25" y="-40" width="10" height="20" as="geometry" />
        </mxCell>
        <mxCell id="tm53eODnrKpvhOiwJkyI-99" value="" style="endArrow=none;html=1;rounded=0;align=center;verticalAlign=top;endFill=0;labelBackgroundColor=none;endSize=2;entryX=0.5;entryY=1;entryDx=0;entryDy=0;exitX=0.5;exitY=0;exitDx=0;exitDy=0;" parent="1" source="tm53eODnrKpvhOiwJkyI-17" target="tm53eODnrKpvhOiwJkyI-95" edge="1">
          <mxGeometry relative="1" as="geometry">
            <mxPoint x="869" y="30" as="sourcePoint" />
            <mxPoint x="869" y="-15" as="targetPoint" />
          </mxGeometry>
        </mxCell>
        <mxCell id="tm53eODnrKpvhOiwJkyI-100" value="SGBD API" style="text;html=1;align=center;verticalAlign=middle;resizable=0;points=[];autosize=1;strokeColor=none;fillColor=none;fontStyle=1" parent="1" vertex="1">
          <mxGeometry x="857" y="-18" width="80" height="30" as="geometry" />
        </mxCell>
        <mxCell id="tm53eODnrKpvhOiwJkyI-101" value="" style="endArrow=none;html=1;rounded=0;exitX=0.5;exitY=0;exitDx=0;exitDy=0;entryX=0.5;entryY=1;entryDx=0;entryDy=0;" parent="1" source="tm53eODnrKpvhOiwJkyI-13" target="tm53eODnrKpvhOiwJkyI-4" edge="1">
          <mxGeometry width="50" height="50" relative="1" as="geometry">
            <mxPoint x="277" y="210" as="sourcePoint" />
            <mxPoint x="277" y="170" as="targetPoint" />
          </mxGeometry>
        </mxCell>
        <mxCell id="QIbsjkuZwy3YKBKoMpHP-1" value="«component»&lt;br&gt;&lt;b&gt;PontoRepo&lt;/b&gt;" style="html=1;dropTarget=0;whiteSpace=wrap;fillColor=#7ACFF5;" vertex="1" parent="1">
          <mxGeometry x="1000" y="300" width="140" height="50" as="geometry" />
        </mxCell>
        <mxCell id="QIbsjkuZwy3YKBKoMpHP-2" value="" style="shape=module;jettyWidth=8;jettyHeight=4;fillColor=#7ACFF5;" vertex="1" parent="QIbsjkuZwy3YKBKoMpHP-1">
          <mxGeometry x="1" width="20" height="20" relative="1" as="geometry">
            <mxPoint x="-27" y="7" as="offset" />
          </mxGeometry>
        </mxCell>
        <mxCell id="QIbsjkuZwy3YKBKoMpHP-4" value="«component»&lt;br&gt;&lt;b&gt;PassagemRepo&lt;/b&gt;" style="html=1;dropTarget=0;whiteSpace=wrap;fillColor=#7ACFF5;" vertex="1" parent="1">
          <mxGeometry x="1200" y="300" width="140" height="50" as="geometry" />
        </mxCell>
        <mxCell id="QIbsjkuZwy3YKBKoMpHP-5" value="" style="shape=module;jettyWidth=8;jettyHeight=4;fillColor=#7ACFF5;" vertex="1" parent="QIbsjkuZwy3YKBKoMpHP-4">
          <mxGeometry x="1" width="20" height="20" relative="1" as="geometry">
            <mxPoint x="-27" y="7" as="offset" />
          </mxGeometry>
        </mxCell>
        <mxCell id="QIbsjkuZwy3YKBKoMpHP-11" value="" style="ellipse;whiteSpace=wrap;html=1;align=center;aspect=fixed;fillColor=none;strokeColor=none;resizable=0;perimeter=centerPerimeter;rotatable=0;allowArrows=0;points=[];outlineConnect=1;" vertex="1" parent="1">
          <mxGeometry x="829" y="343" width="10" height="10" as="geometry" />
        </mxCell>
        <mxCell id="QIbsjkuZwy3YKBKoMpHP-14" value="" style="shape=providedRequiredInterface;html=1;verticalLabelPosition=bottom;sketch=0;rotation=0;fillColor=#72c9f7;" vertex="1" parent="1">
          <mxGeometry x="846.25" y="210" width="30" height="30" as="geometry" />
        </mxCell>
        <mxCell id="QIbsjkuZwy3YKBKoMpHP-16" value="" style="endArrow=none;html=1;rounded=0;exitX=1;exitY=0.5;exitDx=0;exitDy=0;exitPerimeter=0;entryX=0.152;entryY=-0.005;entryDx=0;entryDy=0;entryPerimeter=0;" edge="1" parent="1" source="QIbsjkuZwy3YKBKoMpHP-14" target="QIbsjkuZwy3YKBKoMpHP-1">
          <mxGeometry width="50" height="50" relative="1" as="geometry">
            <mxPoint x="1020" y="250" as="sourcePoint" />
            <mxPoint x="1020" y="290" as="targetPoint" />
            <Array as="points">
              <mxPoint x="1020" y="225" />
            </Array>
          </mxGeometry>
        </mxCell>
        <mxCell id="QIbsjkuZwy3YKBKoMpHP-18" value="" style="endArrow=none;html=1;rounded=0;entryX=0.5;entryY=0;entryDx=0;entryDy=0;exitX=1;exitY=0.5;exitDx=0;exitDy=0;exitPerimeter=0;" edge="1" parent="1" target="QIbsjkuZwy3YKBKoMpHP-4">
          <mxGeometry width="50" height="50" relative="1" as="geometry">
            <mxPoint x="1015" y="225" as="sourcePoint" />
            <mxPoint x="1119.81" y="290" as="targetPoint" />
            <Array as="points">
              <mxPoint x="1270" y="225" />
            </Array>
          </mxGeometry>
        </mxCell>
        <mxCell id="QIbsjkuZwy3YKBKoMpHP-19" value="" style="endArrow=none;html=1;rounded=0;entryX=0.5;entryY=1;entryDx=0;entryDy=0;" edge="1" parent="1" target="QIbsjkuZwy3YKBKoMpHP-1">
          <mxGeometry width="50" height="50" relative="1" as="geometry">
            <mxPoint x="900" y="600" as="sourcePoint" />
            <mxPoint x="907" y="350" as="targetPoint" />
            <Array as="points">
              <mxPoint x="1070" y="600" />
            </Array>
          </mxGeometry>
        </mxCell>
        <mxCell id="QIbsjkuZwy3YKBKoMpHP-20" value="" style="endArrow=none;html=1;rounded=0;entryX=0.25;entryY=1;entryDx=0;entryDy=0;" edge="1" parent="1" target="QIbsjkuZwy3YKBKoMpHP-4">
          <mxGeometry width="50" height="50" relative="1" as="geometry">
            <mxPoint x="860" y="600" as="sourcePoint" />
            <mxPoint x="1190" y="340" as="targetPoint" />
            <Array as="points">
              <mxPoint x="1235" y="600" />
            </Array>
          </mxGeometry>
        </mxCell>
        <mxCell id="QIbsjkuZwy3YKBKoMpHP-24" value="" style="shape=providedRequiredInterface;html=1;verticalLabelPosition=bottom;sketch=0;rotation=90;fillColor=#72c9f7;" vertex="1" parent="1">
          <mxGeometry x="970" y="390" width="30" height="30" as="geometry" />
        </mxCell>
        <mxCell id="QIbsjkuZwy3YKBKoMpHP-26" value="" style="endArrow=none;html=1;rounded=0;exitX=0;exitY=0.5;exitDx=0;exitDy=0;exitPerimeter=0;entryX=0.25;entryY=1;entryDx=0;entryDy=0;" edge="1" parent="1" source="QIbsjkuZwy3YKBKoMpHP-24" target="QIbsjkuZwy3YKBKoMpHP-1">
          <mxGeometry width="50" height="50" relative="1" as="geometry">
            <mxPoint x="1065" y="530" as="sourcePoint" />
            <mxPoint x="1030" y="350" as="targetPoint" />
            <Array as="points">
              <mxPoint x="1035" y="390" />
            </Array>
          </mxGeometry>
        </mxCell>
        <mxCell id="QIbsjkuZwy3YKBKoMpHP-27" value="" style="endArrow=none;html=1;rounded=0;entryX=0.5;entryY=1;entryDx=0;entryDy=0;exitX=0;exitY=0.5;exitDx=0;exitDy=0;exitPerimeter=0;" edge="1" parent="1" source="QIbsjkuZwy3YKBKoMpHP-28" target="QIbsjkuZwy3YKBKoMpHP-4">
          <mxGeometry width="50" height="50" relative="1" as="geometry">
            <mxPoint x="1234.7" y="382" as="sourcePoint" />
            <mxPoint x="1234.7" y="340" as="targetPoint" />
            <Array as="points">
              <mxPoint x="1155" y="390" />
              <mxPoint x="1270" y="390" />
            </Array>
          </mxGeometry>
        </mxCell>
        <mxCell id="QIbsjkuZwy3YKBKoMpHP-28" value="" style="shape=providedRequiredInterface;html=1;verticalLabelPosition=bottom;sketch=0;rotation=90;fillColor=#72c9f7;" vertex="1" parent="1">
          <mxGeometry x="970" y="390" width="30" height="30" as="geometry" />
        </mxCell>
        <mxCell id="QIbsjkuZwy3YKBKoMpHP-29" value="Repo API" style="text;html=1;align=center;verticalAlign=middle;resizable=0;points=[];autosize=1;strokeColor=none;fillColor=none;fontStyle=1" vertex="1" parent="1">
          <mxGeometry x="910" y="410" width="80" height="30" as="geometry" />
        </mxCell>
        <mxCell id="QIbsjkuZwy3YKBKoMpHP-34" value="Piso«component»&lt;br&gt;Ponto&lt;b&gt;&amp;nbsp;(DDD)&lt;/b&gt;" style="html=1;dropTarget=0;whiteSpace=wrap;fillColor=#7ACFF5;" vertex="1" parent="1">
          <mxGeometry x="640" y="680" width="168" height="50" as="geometry" />
        </mxCell>
        <mxCell id="QIbsjkuZwy3YKBKoMpHP-35" value="" style="shape=module;jettyWidth=8;jettyHeight=4;fillColor=#7ACFF5;" vertex="1" parent="QIbsjkuZwy3YKBKoMpHP-34">
          <mxGeometry x="1" width="20" height="20" relative="1" as="geometry">
            <mxPoint x="-27" y="7" as="offset" />
          </mxGeometry>
        </mxCell>
        <mxCell id="QIbsjkuZwy3YKBKoMpHP-36" value="Piso«component»&lt;br&gt;Passagem&lt;b&gt; (DDD)&lt;/b&gt;" style="html=1;dropTarget=0;whiteSpace=wrap;fillColor=#7ACFF5;" vertex="1" parent="1">
          <mxGeometry x="880" y="680" width="168" height="50" as="geometry" />
        </mxCell>
        <mxCell id="QIbsjkuZwy3YKBKoMpHP-37" value="" style="shape=module;jettyWidth=8;jettyHeight=4;fillColor=#7ACFF5;" vertex="1" parent="QIbsjkuZwy3YKBKoMpHP-36">
          <mxGeometry x="1" width="20" height="20" relative="1" as="geometry">
            <mxPoint x="-27" y="7" as="offset" />
          </mxGeometry>
        </mxCell>
        <mxCell id="QIbsjkuZwy3YKBKoMpHP-39" value="" style="endArrow=none;html=1;rounded=0;exitX=0.25;exitY=0;exitDx=0;exitDy=0;" edge="1" parent="1" source="QIbsjkuZwy3YKBKoMpHP-34">
          <mxGeometry width="50" height="50" relative="1" as="geometry">
            <mxPoint x="676" y="680.0000000000002" as="sourcePoint" />
            <mxPoint x="474" y="640" as="targetPoint" />
            <Array as="points">
              <mxPoint x="682" y="640" />
            </Array>
          </mxGeometry>
        </mxCell>
        <mxCell id="QIbsjkuZwy3YKBKoMpHP-41" value="" style="endArrow=none;html=1;rounded=0;exitX=0.25;exitY=0;exitDx=0;exitDy=0;" edge="1" parent="1">
          <mxGeometry width="50" height="50" relative="1" as="geometry">
            <mxPoint x="970" y="680" as="sourcePoint" />
            <mxPoint x="680" y="640" as="targetPoint" />
            <Array as="points">
              <mxPoint x="970" y="640" />
            </Array>
          </mxGeometry>
        </mxCell>
      </root>
    </mxGraphModel>
  </diagram>
</mxfile>
